<svg width="17" height="19" viewBox="0 0 17 19" fill="none" xmlns="http://www.w3.org/2000/svg">
<path d="M4.10909 0C3.89113 0 3.6821 0.0865842 3.52798 0.240705C3.37386 0.394826 3.28727 0.603858 3.28727 0.821818C3.28727 1.03978 3.37386 1.24881 3.52798 1.40293C3.6821 1.55705 3.89113 1.64364 4.10909 1.64364H10.6836C10.9016 1.64364 11.1106 1.55705 11.2648 1.40293C11.4189 1.24881 11.5055 1.03978 11.5055 0.821818C11.5055 0.603858 11.4189 0.394826 11.2648 0.240705C11.1106 0.0865842 10.9016 0 10.6836 0L4.10909 0ZM0 10.6836C0 8.722 0.779258 6.8407 2.16635 5.45362C3.55343 4.06653 5.43473 3.28727 7.39637 3.28727C9.358 3.28727 11.2393 4.06653 12.6264 5.45362C14.0135 6.8407 14.7927 8.722 14.7927 10.6836C14.7927 12.6453 14.0135 14.5266 12.6264 15.9137C11.2393 17.3007 9.358 18.08 7.39637 18.08C5.43473 18.08 3.55343 17.3007 2.16635 15.9137C0.779258 14.5266 0 12.6453 0 10.6836ZM6.57455 12.3273C6.57455 12.5452 6.66113 12.7543 6.81525 12.9084C6.96937 13.0625 7.17841 13.1491 7.39637 13.1491C7.61433 13.1491 7.82336 13.0625 7.97748 12.9084C8.1316 12.7543 8.21818 12.5452 8.21818 12.3273V7.39636C8.21818 7.1784 8.1316 6.96937 7.97748 6.81525C7.82336 6.66113 7.61433 6.57455 7.39637 6.57455C7.17841 6.57455 6.96937 6.66113 6.81525 6.81525C6.66113 6.96937 6.57455 7.1784 6.57455 7.39636V12.3273ZM16.1964 6.33293C16.0425 6.48722 15.8336 6.57406 15.6157 6.57437C15.3978 6.57468 15.1887 6.48842 15.0343 6.33457L13.3874 4.69423C13.3088 4.61852 13.2461 4.52793 13.2029 4.42773C13.1597 4.32753 13.1369 4.21972 13.1358 4.11061C13.1347 4.00149 13.1553 3.89325 13.1965 3.7922C13.2377 3.69115 13.2986 3.59931 13.3756 3.52204C13.4527 3.44477 13.5443 3.38362 13.6453 3.34215C13.7462 3.30069 13.8544 3.27974 13.9635 3.28053C14.0726 3.28132 14.1805 3.30383 14.2808 3.34676C14.3811 3.38968 14.4719 3.45215 14.5478 3.53053L16.1948 5.17088C16.349 5.32478 16.4359 5.53365 16.4362 5.75156C16.4365 5.96948 16.3502 6.1786 16.1964 6.33293Z" fill="#6E7880"/>
</svg>
