<svg width="24" height="24" viewBox="0 0 24 24" fill="none" xmlns="http://www.w3.org/2000/svg">
<path d="M9.44995 0.28C9.04996 0.36 8.89995 0.84 9.18995 1.12L12.2 4.13C12.52 4.44 13.05 4.22 13.05 3.78V2.04C17.5 2.48 21.11 5.86 21.89 10.21C21.97 10.67 22.39 10.99 22.86 10.99C23.48 10.99 23.95 10.42 23.84 9.81C22.61 2.89 15.79 -1.12 9.44995 0.28ZM11.8 19.87C11.7308 19.7995 11.6422 19.7513 11.5455 19.7315C11.4488 19.7117 11.3484 19.7212 11.2571 19.7588C11.1658 19.7964 11.0878 19.8603 11.0331 19.9425C10.9784 20.0247 10.9494 20.1213 10.95 20.22V21.96C6.49996 21.52 2.88995 18.14 2.10995 13.79C2.02995 13.33 1.60995 13.01 1.13995 13.01C0.519955 13.01 0.0499549 13.58 0.159955 14.19C1.39995 21.11 8.21996 25.12 14.56 23.72C14.95 23.63 15.11 23.16 14.82 22.87L11.8 19.87Z" fill="#DFE9ED"/>
<path fill-rule="evenodd" clip-rule="evenodd" d="M9.35355 8.64645C9.15829 8.45118 8.84171 8.45118 8.64645 8.64645C8.45118 8.84171 8.45118 9.15829 8.64645 9.35355L11.0429 11.75L8.64645 14.1464C8.45118 14.3417 8.45118 14.6583 8.64645 14.8536C8.84171 15.0488 9.15829 15.0488 9.35355 14.8536L11.75 12.4571L14.1464 14.8536C14.3417 15.0488 14.6583 15.0488 14.8536 14.8536C15.0488 14.6583 15.0488 14.3417 14.8536 14.1464L12.4571 11.75L14.8536 9.35355C15.0488 9.15829 15.0488 8.84171 14.8536 8.64645C14.6583 8.45118 14.3417 8.45118 14.1464 8.64645L11.75 11.0429L9.35355 8.64645Z" fill="#DFE9ED"/>
</svg>
