<svg width="28" height="28" viewBox="0 0 28 28" fill="none" xmlns="http://www.w3.org/2000/svg">
<path d="M21 8.75C21.7736 8.75 22.5155 8.44271 23.0624 7.89573C23.6094 7.34874 23.9167 6.60688 23.9167 5.83333C23.9167 5.05978 23.6094 4.31792 23.0624 3.77094C22.5155 3.22395 21.7736 2.91666 21 2.91666C20.2265 2.91666 19.4846 3.22395 18.9376 3.77094C18.3907 4.31792 18.0834 5.05978 18.0834 5.83333C18.0834 6.60688 18.3907 7.34874 18.9376 7.89573C19.4846 8.44271 20.2265 8.75 21 8.75Z" stroke="#DFE9ED" stroke-width="2"/>
<path d="M9.82861 18.4012L8.09611 20.6832L2.33569 23.9149M7.00003 9.7825L11.6684 8.1655L18.0834 11.2274L11.6684 16.009L18.0834 20.2323L14.0047 25.6655L7.00003 9.7825ZM20.6034 12.6251L22.1667 13.4762L25.6667 10.1885L20.6034 12.6251Z" stroke="#DFE9ED" stroke-width="2" stroke-linecap="round" stroke-linejoin="round"/>
</svg>
